# AST/ASF file generated using VICON BodyLanguage
# -----------------------------------------------
:version 1.10
:name VICON
:units
  mass 1.0
  length 0.45
  angle deg
:documentation
   .ast/.asf automatically generated from VICON data using
   VICON BodyBuilder and BodyLanguage model FoxedUp or BRILLIANT.MOD
:root
   order TX TY TZ RX RY RZ
   axis XYZ
   position 0 0 0  
   orientation 0 0 0 
:bonedata
  begin
     id 1 
     name lhipjoint
     direction 0.576517 -0.752066 0.319413 
     length 2.45433 
     axis 0 0 0  XYZ
  end
  begin
     id 2 
     name lfemur
     direction 0.34202 -0.939693 0  
     length 7.54459  
     axis 0 0 20  XYZ
    dof rx ry rz
    limits (-160.0 20.0)
           (-70.0 70.0)
           (-60.0 70.0)
  end
  begin
     id 3 
     name ltibia
     direction 0.34202 -0.939693 0   
     length 7.73986   
     axis 0 0 20   XYZ
    dof rx
    limits (-10.0 170.0)
  end
  begin
     id 4 
     name lfoot
     direction 0.090693 -0.249177 0.964202   
     length 2.28437   
     axis -90 7.62852e-016 20   XYZ
    dof rx rz
    limits (-45.0 90.0)
           (-70.0 20.0)
  end
  begin
     id 5 
     name ltoes
     direction 1.5356e-011 -4.21928e-011 1   
     length 1.14243   
     axis -90 7.62852e-016 20   XYZ
    dof rx
    limits (-90.0 20.0)
  end
  begin
     id 6 
     name rhipjoint
     direction -0.573937 -0.753736 0.320122   
     length 2.44889  
     axis 0 0 0  XYZ 
  end
  begin
     id 7 
     name rfemur
     direction -0.34202 -0.939693 0   
     length 7.50166   
     axis 0 0 -20   XYZ
    dof rx ry rz
    limits (-160.0 20.0)
           (-70.0 70.0)
           (-70.0 60.0)
  end
  begin
     id 8 
     name rtibia
     direction -0.34202 -0.939693 0   
     length 7.54266   
     axis 0 0 -20   XYZ
    dof rx
    limits (-10.0 170.0)
 end
 begin
     id 9 
     name rfoot
     direction -0.114017 -0.31326 0.942798   
     length 2.34212  
     axis -90 -7.62852e-016 -20   XYZ
    dof rx rz
    limits (-45.0 90.0)
           (-20.0 70.0)
  end
  begin
     id 10 
     name rtoes
     direction -1.53557e-011 -4.21867e-011 1   
     length 1.16246   
     axis -90 -7.62852e-016 -20   XYZ
    dof rx
    limits (-90.0 20.0)
  end
  begin
     id 11 
     name lowerback
     direction -0.0228371 0.999155 -0.034167   
     length 2.0537   
     axis 0 0 0   XYZ
    dof rx ry rz
    limits (-20.0 45.0)
           (-30.0 30.0)
           (-30.0 30.0)
  end
  begin
     id 12 
     name upperback
     direction 0.0198981 0.999794 0.00389455   
     length 2.05302   
     axis 0 0 0   XYZ
    dof rx ry rz
    limits (-20.0 45.0)
           (-30.0 30.0)
           (-30.0 30.0)
  end
  begin
     id 13 
     name thorax
     direction 0.0304566 0.99935 0.0192987   
     length 2.05315   
     axis 0 0 0   XYZ
    dof rx ry rz
    limits (-20.0 45.0)
           (-30.0 30.0)
           (-30.0 30.0)
  end
  begin
     id 14 
     name lowerneck
     direction -0.0196762 0.99417 0.106017   
     length 1.82056   
     axis 0 0 0   XYZ
    dof rx ry rz
    limits (-20.0 45.0)
           (-30.0 30.0)
           (-30.0 30.0)
  end
  begin
     id 15 
     name upperneck
     direction 0.00517787 0.9802 -0.197944   
     length 1.83835   
     axis 0 0 0   XYZ
    dof rx ry rz
    limits (-20.0 45.0)
           (-30.0 30.0)
           (-30.0 30.0)
  end
  begin
     id 16
     name head
     direction 0.00211419 0.996945 -0.078081  
     length 1.85629  
     axis 0 0 0   XYZ
    dof rx ry rz
    limits (-20.0 45.0)
           (-30.0 30.0)
           (-30.0 30.0)
  end
  begin
     id 17 
     name lclavicle
     direction 0.930001 0.365811 -0.0357824  
     length 3.81961  
     axis 0 0 0   XYZ
    dof ry rz
    limits (-20.0 10.0)
           (0.0 20.0)
  end
  begin
     id 18 
     name lhumerus
     direction 1 -4.48968e-011 -3.06644e-027   
     length 5.14507   
     axis 180 -30 -90   XYZ
    dof rx ry rz
    limits (-60.0 90.0)
           (-90.0 90.0)
           (-90.0 90.0)
  end
  begin
     id 19
     name lradius
     direction 1 -4.48965e-011 9.06925e-028   
     length 3.50646   
     axis 180 -30 -90   XYZ
    dof rx
    limits (-10.0 170.0)
  end
  begin
     id 20
     name lwrist
     direction 1 -4.48957e-011 1.03922e-027   
     length 1.75323   
     axis -2.56395e-016 90 90   XYZ
    dof ry
    limits (-180.0 0.0)
 end
  begin
     id 21 
     name lhand
     direction 1 -4.48967e-011 2.08017e-027   
     length 0.629969   
     axis -1.32723e-015 90 90   XYZ
    dof rx rz
    limits (-90.0 90.0)
           (-45.0 45.0)
  end
  begin
     id 22 
     name lfingers
     direction 1 -4.49089e-011 4.20095e-027   
     length 0.507897   
     axis -2.6545e-015 90 90   XYZ
    dof rx
    limits (0.0 90.0)
  end
  begin
     id 23
     name lthumb
     direction 0.707107 -6.35001e-011 0.707107   
     length 0.729241   
     axis -90 45 5.05613e-014   XYZ
    dof rx rz
    limits (-45.0 45.0)
           (-45.0 45.0)
  end
  begin
     id 24 
     name rclavicle
     direction -0.881882 0.464123 -0.0829113   
     length 3.47515  
     axis 0 0 0   XYZ 
    dof ry rz
    limits (-10.0 20.0)
           (-20.0 0.0)
  end
  begin
     id 25 
     name rhumerus
     direction -1 -4.48961e-011 -1.55672e-027  
     length 5.232   
     axis 180 30 90   XYZ
    dof rx ry rz
    limits (-90.0 60.0)
           (-90.0 90.0)
           (-90.0 90.0)
  end
  begin
     id 26 
     name rradius
     direction -1 -4.48963e-011 6.18178e-029   
     length 3.65641   
     axis 180 30 90   XYZ
    dof rx
    limits (-10.0 170.0)
  end
  begin
     id 27 
     name rwrist
     direction -1 -4.48982e-011 1.04136e-027   
     length 1.8282   
     axis -2.56395e-016 -90 -90   XYZ
    dof ry
    limits (-180.0 0.0)
  end
  begin
     id 28
     name rhand
     direction -1 -4.48929e-011 2.07378e-027   
     length 0.656807   
     axis -1.32723e-015 -90 -90   XYZ
    dof rx rz
    limits (-90.0 90.0)
           (-45.0 45.0)
  end
  begin
     id 29
     name rfingers
     direction -1 -4.489e-011 4.13816e-027   
     length 0.529535   
     axis -2.6545e-015 -90 -90   XYZ
    dof rx
    limits (0.0 90.0)
  end
  begin
     id 30
     name rthumb
     direction -0.707107 -6.34843e-011 0.707107   
     length 0.760309   
     axis -90 -45 -5.05613e-014   XYZ
    dof rx rz
    limits (-45.0 45.0)
           (-45.0 45.0)
  end
:hierarchy
  begin
    root lhipjoint rhipjoint lowerback
    lhipjoint lfemur
    lfemur ltibia
    ltibia lfoot
    lfoot ltoes
    rhipjoint rfemur
    rfemur rtibia
    rtibia rfoot
    rfoot rtoes
    lowerback upperback
    upperback thorax
    thorax lowerneck lclavicle rclavicle
    lowerneck upperneck
    upperneck head
    lclavicle lhumerus
    lhumerus lradius
    lradius lwrist
    lwrist lhand lthumb
    lhand lfingers
    rclavicle rhumerus
    rhumerus rradius
    rradius rwrist
    rwrist rhand rthumb
    rhand rfingers
  end

#!OML:ASF H:\ManfredETheater\Project 1\Capture day 1\Session 1\subject.ASF
:FULLY-SPECIFIED
:DEGREES
16
root 2.03547 15.1285 38.6485 -148.506 -8.01258 -178.175
lowerback 31.414 -0.262628 4.1051
upperback 3.87326 0.0871859 0.51125
thorax -11.9908 -0.545502 -1.61248
lowerneck -13.6588 -3.03068 -2.82779
upperneck -4.00987 -4.21884 2.91464
head 1.16439 -2.27048 1.18433
rclavicle -6.06293e-015 -1.36167e-014
rhumerus -37.6527 3.79779 -84.0923
rradius 80.5275
rwrist -4.38895
rhand -20.2412 -5.69301
rfingers 7.12502
rthumb 6.10692 -35.585
lclavicle -6.06293e-015 -1.36167e-014
lhumerus -31.2382 -13.8385 84.2198
lradius 60.9118
lwrist -1.36282
lhand -26.0871 -5.76497
lfingers 7.12502
lthumb 0.461574 24.2143
rfemur -61.7456 -16.5493 26.7052
rtibia 89.6013
rfoot -17.2695 -9.68301
rtoes -34.5409
lfemur -64.936 2.90919 -17.4134
ltibia 77.3353
lfoot -29.8112 -10.6503
ltoes 5.75076
17
root 2.00845 15.0994 38.3339 -148.69 -8.19023 -178.204
lowerback 31.8902 -0.418901 4.30086
upperback 4.01116 -0.0639247 0.625065
thorax -12.0374 -0.639591 -1.52943
lowerneck -13.6976 -2.91741 -2.615
upperneck -3.96146 -4.09659 2.6039
head 1.16862 -2.21787 1.05408
rclavicle 5.86415e-015 5.2181e-015
rhumerus -37.9738 3.37935 -83.5896
rradius 81.9086
rwrist -4.65098
rhand -20.293 -5.49475
rfingers 7.12502
rthumb 6.05695 -35.3882
lclavicle 5.86415e-015 5.2181e-015
lhumerus -31.0197 -13.9365 83.8184
lradius 61.5635
lwrist -1.32748
lhand -26.327 -5.96488
lfingers 7.12502
lthumb 0.229945 24.0147
rfemur -64.403 -16.4064 27.0956
rtibia 89.8729
rfoot -18.0484 -9.80128
rtoes -34.9132
lfemur -63.8185 2.82759 -17.1411
ltibia 78.0179
lfoot -29.9325 -11.2742
ltoes 4.62866
18
root 1.98386 15.0736 38.0149 -148.924 -8.42438 -178.226
lowerback 32.3969 -0.588432 4.53871
upperback 4.1777 -0.22138 0.754233
thorax -12.0609 -0.740493 -1.44741
lowerneck -13.7228 -2.80277 -2.40074
upperneck -3.94159 -3.97447 2.28079
head 1.16169 -2.16672 0.920461
rclavicle 1.17283e-014 -1.4561e-014
rhumerus -38.27 2.94886 -83.0829
rradius 83.3531
rwrist -4.93035
rhand -20.3637 -5.27124
rfingers 7.12502
rthumb 5.98873 -35.1666
lclavicle 1.17283e-014 -1.4561e-014
lhumerus -30.7443 -14.0402 83.4047
lradius 62.2049
lwrist -1.29412
lhand -26.5146 -6.13814
lfingers 7.12502
lthumb 0.0487739 23.8416
rfemur -66.9001 -16.2258 27.4465
rtibia 89.8694
rfoot -18.6664 -9.93091
rtoes -35.101
lfemur -62.5714 2.68509 -16.7861
ltibia 78.5805
lfoot -29.992 -11.9805
ltoes 3.55204
19
root 1.96134 15.0513 37.6916 -149.193 -8.69019 -178.251
lowerback 32.9231 -0.762374 4.79532
upperback 4.36764 -0.381556 0.891468
thorax -12.0622 -0.845231 -1.36316
lowerneck -13.7444 -2.68762 -2.18538
upperneck -3.93417 -3.85276 1.94545
head 1.15072 -2.11662 0.78337
rclavicle -8.24956e-015 -1.5207e-014
rhumerus -38.5434 2.50886 -82.5788
rradius 84.8436
rwrist -5.22424
rhand -20.4445 -5.05945
rfingers 7.12502
rthumb 5.91067 -34.957
lclavicle -8.24956e-015 -1.5207e-014
lhumerus -30.4061 -14.1378 82.9851
lradius 62.8182
lwrist -1.28997
lhand -26.6805 -6.30961
lfingers 7.12502
lthumb -0.111464 23.6701
rfemur -69.243 -16.0076 27.7236
rtibia 89.5983
rfoot -19.1238 -10.064
rtoes -35.1287
lfemur -61.2006 2.48431 -16.3828
ltibia 79.0034
lfoot -29.9954 -12.7474
ltoes 2.57553
20
root 1.94073 15.0309 37.3646 -149.461 -8.96319 -178.294
lowerback 33.4291 -0.930238 5.04429
upperback 4.5768 -0.540547 1.03061
thorax -12.0299 -0.949788 -1.27167
lowerneck -13.7675 -2.57138 -1.96355
upperneck -3.93056 -3.73103 1.59057
head 1.13917 -2.06732 0.639481
rclavicle 4.77083e-015 -1.64991e-014
rhumerus -38.7949 2.05889 -82.0783
rradius 86.3844
rwrist -5.50454
rhand -20.5086 -4.88478
rfingers 7.12502
rthumb 5.8488 -34.7841
lclavicle 4.77083e-015 -1.64991e-014
lhumerus -29.9993 -14.2169 82.5661
lradius 63.3942
lwrist -1.32521
lhand -26.8541 -6.48229
lfingers 7.12502
lthumb -0.279175 23.4973
rfemur -71.4741 -15.7516 27.9086
rtibia 89.0732
rfoot -19.4097 -10.2031
rtoes -35.05
lfemur -59.7457 2.23255 -15.97
ltibia 79.2845
lfoot -29.9506 -13.5362
ltoes 1.70503
21
root 1.92202 15.0115 37.0342 -149.715 -9.24047 -178.37
lowerback 33.9025 -1.09308 5.27177
upperback 4.8051 -0.705856 1.16641
thorax -11.9602 -1.05665 -1.16894
lowerneck -13.7993 -2.4509 -1.72757
upperneck -3.92551 -3.6061 1.2147
head 1.12995 -2.01733 0.48707
rclavicle -1.88845e-015 0
rhumerus -39.0161 1.60679 -81.5905
rradius 87.9609
rwrist -5.7515
rhand -20.5753 -4.70392
rfingers 7.12502
rthumb 5.78435 -34.605
lclavicle -1.88845e-015 0
lhumerus -29.5144 -14.2552 82.1473
lradius 63.9195
lwrist -1.40084
lhand -27.0445 -6.6672
lfingers 7.12502
lthumb -0.463032 23.312
rfemur -73.5957 -15.4672 27.974
rtibia 88.3105
rfoot -19.5988 -10.332
rtoes -34.9738
lfemur -58.2256 1.92734 -15.5788
ltibia 79.4321
lfoot -29.8638 -14.3115
ltoes 0.947854
22
root 1.90512 14.9914 36.7006 -149.935 -9.51722 -178.479
lowerback 34.3219 -1.24655 5.47451
upperback 5.04582 -0.872334 1.29942
thorax -11.8526 -1.16252 -1.05582
lowerneck -13.8339 -2.33028 -1.48345
upperneck -3.9122 -3.48172 0.824482
head 1.12479 -1.96789 0.329035
rclavicle 3.57812e-015 1.59028e-015
rhumerus -39.215 1.1585 -81.1146
rradius 89.5597
rwrist -5.90524
rhand -20.6285 -4.54165
rfingers 7.12502
rthumb 5.73307 -34.4441
lclavicle 3.57812e-015 1.59028e-015
lhumerus -28.9562 -14.245 81.7391
lradius 64.3885
lwrist -1.50013
lhand -27.2421 -6.83392
lfingers 7.12502
lthumb -0.653913 23.1448
rfemur -75.6267 -15.1577 27.9195
rtibia 87.3254
rfoot -19.6912 -10.4295
rtoes -34.9167
lfemur -56.6751 1.57639 -15.2215
ltibia 79.4635
lfoot -29.7322 -15.0455
ltoes 0.325664
23
root 1.89028 14.9688 36.3643 -150.099 -9.78859 -178.616
lowerback 34.6682 -1.38771 5.64295
upperback 5.292 -1.03865 1.43051
thorax -11.7086 -1.26561 -0.928074
lowerneck -13.8672 -2.20792 -1.23142
upperneck -3.88692 -3.35519 0.422467
head 1.12443 -1.91739 0.166266
rclavicle -6.55989e-015 -2.3059e-014
rhumerus -39.3795 0.725561 -80.6576
rradius 91.1624
rwrist -5.98777
rhand -20.6817 -4.33591
rfingers 7.12502
rthumb 5.68171 -34.2397
lclavicle -6.55989e-015 -2.3059e-014
lhumerus -28.3269 -14.1678 81.3409
lradius 64.7935
lwrist -1.6074
lhand -27.4718 -7.00758
lfingers 7.12502
lthumb -0.875732 22.9704
rfemur -77.5852 -14.8169 27.7442
rtibia 86.1294
rfoot -19.6618 -10.4953
rtoes -34.9861
lfemur -55.1299 1.19196 -14.9035
ltibia 79.3947
lfoot -29.5612 -15.7192
ltoes -0.15626
24
root 1.87742 14.9435 36.0249 -150.202 -10.0656 -178.772
lowerback 35.0131 -1.529 5.80298
upperback 5.46374 -1.20272 1.54918
thorax -11.5308 -1.36606 -0.790452
lowerneck -13.8863 -2.0866 -0.971052
upperneck -3.85721 -3.23028 0.0138763
head 1.1244 -1.86756 0.000229417
rclavicle 2.5842e-015 -8.64713e-015
rhumerus -39.5054 0.325702 -80.2232
rradius 92.7619
rwrist -6.01935
rhand -20.7073 -4.17225
rfingers 7.12502
rthumb 5.65695 -34.0767
lclavicle 2.5842e-015 -8.64713e-015
lhumerus -27.6298 -14.0121 80.9552
lradius 65.1347
lwrist -1.70936
lhand -27.7224 -7.17227
lfingers 7.12502
lthumb -1.11776 22.8045
rfemur -79.4573 -14.4549 27.4563
rtibia 84.7318
rfoot -19.5099 -10.4981
rtoes -35.2217
lfemur -53.6002 0.776959 -14.6113
ltibia 79.2331
lfoot -29.3504 -16.3343
ltoes -0.470203
25
root 1.8666 14.9152 35.6825 -150.238 -10.3496 -178.931
lowerback 35.2041 -1.65367 5.93478
upperback 5.70483 -1.3632 1.68663
thorax -11.331 -1.46146 -0.643341
lowerneck -13.8773 -1.96858 -0.712805
upperneck -3.82231 -3.10762 -0.392206
head 1.12299 -1.81799 -0.16446
rclavicle 2.74323e-014 -1.08338e-014
rhumerus -39.5961 -0.0153471 -79.8154
rradius 94.3568
rwrist -6.01753
rhand -20.759 -3.96135
rfingers 7.12502
rthumb 5.60707 -33.8672
lclavicle 2.74323e-014 -1.08338e-014
lhumerus -26.8772 -13.7724 80.5873
lradius 65.4064
lwrist -1.77782
lhand -28.0006 -7.34077
lfingers 7.12502
lthumb -1.38646 22.6345
rfemur -81.236 -14.0669 27.0622
rtibia 83.1426
rfoot -19.2061 -10.4014
rtoes -35.6207
lfemur -52.0928 0.336991 -14.3256
ltibia 78.9774
lfoot -29.1186 -16.8868
ltoes -0.644608
26
root 1.85786 14.8844 35.3366 -150.21 -10.6409 -179.072
lowerback 35.3299 -1.77019 6.06147
upperback 5.93342 -1.51335 1.8312
thorax -11.1197 -1.55 -0.492617
lowerneck -13.8319 -1.85568 -0.453344
upperneck -3.78403 -2.98974 -0.794398
head 1.11803 -1.76969 -0.328049
rclavicle 1.63003e-014 -1.85864e-014
rhumerus -39.6401 -0.28079 -79.4425
rradius 95.9294
rwrist -5.99831
rhand -20.8462 -3.70197
rfingers 7.12502
rthumb 5.52285 -33.61
lclavicle 1.63003e-014 -1.85864e-014
lhumerus -26.0784 -13.4435 80.2384
lradius 65.6167
lwrist -1.79757
lhand -28.2931 -7.49539
lfingers 7.12502
lthumb -1.66899 22.4778
rfemur -82.8943 -13.6486 26.5692
rtibia 81.3752
rfoot -18.7596 -10.1646
rtoes -36.1301
lfemur -50.5957 -0.114909 -14.0243
ltibia 78.6165
lfoot -28.9012 -17.3608
ltoes -0.805155
27
root 1.85075 14.8518 34.9868 -150.116 -10.9402 -179.181
lowerback 35.3937 -1.8816 6.19887
upperback 6.14582 -1.65044 1.98156
thorax -10.9024 -1.63074 -0.349153
lowerneck -13.74 -1.74802 -0.191841
upperneck -3.74379 -2.8763 -1.19109
head 1.10728 -1.72213 -0.490091
rclavicle 3.27995e-014 -3.46879e-014
rhumerus -39.6265 -0.453308 -79.1142
rradius 97.4684
rwrist -5.9681
rhand -20.9471 -3.48711
rfingers 7.12502
rthumb 5.42545 -33.3977
lclavicle 3.27995e-014 -3.46879e-014
lhumerus -25.2408 -13.0283 79.908
lradius 65.7747
lwrist -1.75074
lhand -28.5902 -7.63225
lfingers 7.12502
lthumb -1.95588 22.3385
rfemur -84.4218 -13.2019 25.9846
rtibia 79.4471
rfoot -18.1306 -9.75125
rtoes -36.7899
lfemur -49.1021 -0.57565 -13.6878
ltibia 78.1313
lfoot -28.7082 -17.7655
ltoes -0.960301
28
root 1.84543 14.819 34.632 -149.966 -11.25 -179.264
lowerback 35.413 -1.99047 6.34446
upperback 6.34034 -1.77809 2.13321
thorax -10.6882 -1.70537 -0.21447
lowerneck -13.5932 -1.64596 0.0759776
upperneck -3.70221 -2.76775 -1.58516
head 1.08889 -1.67531 -0.652182
rclavicle -1.09332e-014 8.94531e-016
rhumerus -39.549 -0.52279 -78.8323
rradius 98.978
rwrist -5.92903
rhand -21.0936 -3.25078
rfingers 7.12502
rthumb 5.28394 -33.1649
lclavicle -1.09332e-014 8.94531e-016
lhumerus -24.3728 -12.5371 79.5973
lradius 65.892
lwrist -1.62861
lhand -28.9069 -7.76424
lfingers 7.12502
lthumb -2.26181 22.2035
rfemur -85.792 -12.7389 25.2925
rtibia 77.3866
rfoot -17.3126 -9.12182
rtoes -37.4847
lfemur -47.5792 -1.05424 -13.3158
ltibia 77.4933
lfoot -28.557 -18.1113
ltoes -1.14228
